HIERARCHY
ROOT Hips
{
	OFFSET 0.000000 0.000000 0.000000
	CHANNELS 6 Xposition Yposition Zposition Zrotation Yrotation Xrotation 
	JOINT LowerBack
	{
		OFFSET 0.000000 0.000000 0.000000
		CHANNELS 3 Zrotation Yrotation Xrotation
		JOINT Spine
		{
			OFFSET 0.028270 2.035590 -0.193380
			CHANNELS 3 Zrotation Yrotation Xrotation
			JOINT Spine1
			{
				OFFSET 0.056720 2.048850 -0.042750
				CHANNELS 3 Zrotation Yrotation Xrotation
				JOINT Neck
				{
					OFFSET 0.000000 0.000000 0.000000
					CHANNELS 3 Zrotation Yrotation Xrotation
					JOINT Neck1
					{
						OFFSET -0.054170 1.746240 0.172020
						CHANNELS 3 Zrotation Yrotation Xrotation
						JOINT Head
						{
							OFFSET 0.104070 1.761360 -0.123970
							CHANNELS 3 Zrotation Yrotation Xrotation
							End Site
							{
								OFFSET 0.000000 0.000000 0.000000
							}
						}
					}
				}
				JOINT LeftShoulder
				{
					OFFSET 0.000000 0.000000 0.000000
					CHANNELS 3 Zrotation Yrotation Xrotation
					JOINT LeftArm
					{
						OFFSET 3.362410 1.200890 -0.311210
						CHANNELS 3 Zrotation Yrotation Xrotation
						JOINT LeftForeArm
						{
							OFFSET 4.983000 -0.000000 -0.000000
							CHANNELS 3 Zrotation Yrotation Xrotation
							JOINT LeftHand
							{
								OFFSET 3.483560 -0.000000 -0.000000
								CHANNELS 3 Zrotation Yrotation Xrotation
								JOINT LeftFingerBase
								{
									OFFSET 0.000000 0.000000 0.000000
									CHANNELS 3 Zrotation Yrotation Xrotation
									JOINT LeftHandIndex1
									{
										OFFSET 0.715260 -0.000000 -0.000000
										CHANNELS 3 Zrotation Yrotation Xrotation
										End Site
										{
											OFFSET 0.000000 0.000000 0.000000
										}
									}
								}
								JOINT LThumb
								{
									OFFSET 0.000000 0.000000 0.000000
									CHANNELS 3 Zrotation Yrotation Xrotation
									End Site
									{
										OFFSET 0.000000 0.000000 0.000000
									}
								}
							}
						}
					}
				}
				JOINT RightShoulder
				{
					OFFSET 0.000000 0.000000 0.000000
					CHANNELS 3 Zrotation Yrotation Xrotation
					JOINT RightArm
					{
						OFFSET -3.136600 1.374050 -0.404650
						CHANNELS 3 Zrotation Yrotation Xrotation
						JOINT RightForeArm
						{
							OFFSET -5.241900 -0.000000 -0.000000
							CHANNELS 3 Zrotation Yrotation Xrotation
							JOINT RightHand
							{
								OFFSET -3.444170 -0.000000 -0.000000
								CHANNELS 3 Zrotation Yrotation Xrotation
								JOINT RightFingerBase
								{
									OFFSET 0.000000 0.000000 0.000000
									CHANNELS 3 Zrotation Yrotation Xrotation
									JOINT RightHandIndex1
									{
										OFFSET -0.622530 -0.000000 -0.000000
										CHANNELS 3 Zrotation Yrotation Xrotation
										End Site
										{
											OFFSET 0.000000 0.000000 0.000000
										}
									}
								}
								JOINT RThumb
								{
									OFFSET 0.000000 0.000000 0.000000
									CHANNELS 3 Zrotation Yrotation Xrotation
									End Site
									{
										OFFSET 0.000000 0.000000 0.000000
									}
								}
							}
						}
					}
				}
			}
		}
	}
}
}
MOTION
Frames: 9
Frame Time: 0.008333
4.653949 16.864592 -7.707706 -177.677758 37.252232 -172.676394 -7.563782 2.478291 -0.521211 -1.989402 2.889214 -3.339152 -3.745820 2.795413 -0.761966 3.004954 -2.726821 -9.175253 -1.016775 -0.058150 -0.424248 0.000000 0.000000 0.000000 -8.555750 20.435504 2.253467 -50.246382 31.393106 5.021158 -4.824747 -25.114718 -0.024325 -0.750455 8.133585 -0.042819 -0.159901 -0.112796 0.000000 0.000000 0.000000 0.000000 0.000000 0.000000 0.000000 -1.702266 4.891954 0.739051 17.772142 31.158690 2.445348 -0.038463 66.942386 -0.023614 -2.735239 4.975910 -0.128434 -0.026173 -0.447632 0.000000 0.000000 0.000000 0.000000 0.000000 0.000000 0.000000 
4.696648 16.811174 -7.824068 -178.129202 36.802317 -173.172976 -7.765413 2.310490 -0.141422 -2.029127 2.733526 -3.281481 -3.814316 2.646666 -0.819006 3.207067 -2.562425 -9.234650 -1.127559 -0.065318 -0.451569 0.000000 0.000000 0.000000 -8.964786 20.233880 2.371710 -51.041696 30.131535 4.354200 -4.847152 -24.050811 -0.024299 -0.698611 8.387720 -0.040543 -0.155910 -0.105270 0.000000 0.000000 0.000000 0.000000 0.000000 0.000000 0.000000 -1.181350 5.077314 0.742004 19.034924 31.243850 2.511391 -0.010902 67.170912 -0.023589 -2.727802 5.031938 -0.129406 -0.026046 -0.449304 0.000000 0.000000 0.000000 0.000000 0.000000 0.000000 0.000000 
4.735009 16.755336 -7.936968 -178.575363 36.327388 -173.657773 -7.936698 2.140736 0.272880 -2.061790 2.574475 -3.216761 -3.884889 2.495125 -0.874719 3.404355 -2.392285 -9.294704 -1.247873 -0.073133 -0.480550 0.000000 0.000000 0.000000 -9.400977 19.984909 2.500124 -51.854755 28.641012 3.691554 -4.872078 -22.804504 -0.024113 -0.673101 8.599044 -0.039964 -0.151632 -0.095952 0.000000 0.000000 0.000000 0.000000 0.000000 0.000000 0.000000 -0.637204 5.272870 0.756834 20.364898 31.276826 2.538003 0.018449 67.396587 -0.023241 -2.663212 5.144277 -0.128875 -0.026761 -0.451564 0.000000 0.000000 0.000000 0.000000 0.000000 0.000000 0.000000 
4.769735 16.698102 -8.046446 -179.019475 35.830211 -174.133047 -8.087175 1.973703 0.716884 -2.090436 2.417145 -3.146289 -3.959355 2.345701 -0.928856 3.603540 -2.218217 -9.350195 -1.377771 -0.081667 -0.509829 0.000000 0.000000 0.000000 -9.841829 19.683225 2.636882 -52.675813 26.912763 3.028336 -4.897691 -21.366016 -0.023679 -0.665758 8.739170 -0.040380 -0.147086 -0.084727 0.000000 0.000000 0.000000 0.000000 0.000000 0.000000 0.000000 -0.061862 5.476581 0.783125 21.771985 31.236929 2.523842 0.050000 67.612711 -0.022740 -2.567018 5.326030 -0.128241 -0.027878 -0.454608 0.000000 0.000000 0.000000 0.000000 0.000000 0.000000 0.000000 
4.801640 16.640689 -8.152644 -179.465207 35.313251 -174.602086 -8.227865 1.814309 1.185044 -2.118328 2.266907 -3.071988 -4.039225 2.203534 -0.983329 3.809437 -2.034552 -9.393822 -1.516737 -0.090973 -0.537447 0.000000 0.000000 0.000000 -10.265243 19.324261 2.780522 -53.494007 24.945785 2.355480 -4.920840 -19.736193 -0.022918 -0.655155 8.789344 -0.040088 -0.142234 -0.071558 0.000000 0.000000 0.000000 0.000000 0.000000 0.000000 0.000000 0.546189 5.693551 0.818438 23.279608 31.087534 2.469309 0.084075 67.816220 -0.022361 -2.482380 5.589115 -0.129602 -0.028670 -0.458621 0.000000 0.000000 0.000000 0.000000 0.000000 0.000000 0.000000 
4.831591 16.584500 -8.255845 -179.915308 34.779988 -175.066569 -8.369199 1.666802 1.670946 -2.148988 2.128350 -2.994568 -4.127706 2.073058 -1.035128 4.033089 -1.855233 -9.423845 -1.664758 -0.101054 -0.562984 0.000000 0.000000 0.000000 -10.648684 18.914958 2.927532 -54.299367 22.732315 1.661276 -4.936583 -17.924146 -0.021774 -0.607228 8.741198 -0.036489 -0.136908 -0.056516 0.000000 0.000000 0.000000 0.000000 0.000000 0.000000 0.000000 1.205168 5.907599 0.861561 24.878887 30.827568 2.385411 0.120245 67.997118 -0.022295 -2.443198 5.913983 -0.134458 -0.028547 -0.463251 -0.000000 0.000000 0.000000 0.000000 0.000000 0.000000 0.000000 
4.860444 16.530975 -8.356443 179.628741 34.234353 -175.527403 -8.519146 1.533555 2.167583 -2.185111 2.004177 -2.916400 -4.227900 1.956688 -1.088548 4.284930 -1.677691 -9.432785 -1.823417 -0.112133 -0.584388 0.000000 0.000000 0.000000 -10.975530 18.463747 3.074822 -55.078953 20.286191 0.937100 -4.938885 -15.962871 -0.020240 -0.483158 8.597230 -0.026879 -0.130794 -0.039809 0.000000 0.000000 0.000000 0.000000 0.000000 0.000000 0.000000 1.937843 6.117790 0.901263 26.561669 30.416700 2.331887 0.155755 68.139185 -0.024429 -2.729485 6.405705 -0.162499 -0.023158 -0.470231 -0.000000 0.000000 0.000000 0.000000 0.000000 0.000000 0.000000 
4.889020 16.481483 -8.454877 179.166624 33.675813 -175.984652 -8.682903 1.421457 2.665599 -2.228203 1.901269 -2.838650 -4.339087 1.861000 -1.140401 4.552297 -1.501919 -9.417740 -1.983632 -0.123483 -0.600498 0.000000 0.000000 0.000000 -11.234616 17.960139 3.219393 -55.826291 17.627931 0.165161 -4.922469 -13.895021 -0.018376 -0.237615 8.363394 -0.008659 -0.123569 -0.021688 0.000000 0.000000 0.000000 0.000000 0.000000 0.000000 0.000000 2.687550 6.320748 0.947479 28.411186 29.861436 2.210154 0.194857 68.238022 -0.025599 -2.892461 6.818828 -0.183042 -0.019496 -0.475112 -0.000000 0.000000 0.000000 0.000000 0.000000 0.000000 0.000000 
4.918023 16.437341 -8.551749 178.701144 33.106092 -176.433968 -8.859750 1.330236 3.156407 -2.278709 1.819358 -2.763586 -4.463902 1.785372 -1.194959 4.840347 -1.326021 -9.373583 -2.145273 -0.135155 -0.609652 0.000000 0.000000 0.000000 -11.420694 17.420596 3.357673 -56.530379 14.788326 -0.635703 -4.881303 -11.794092 -0.016325 0.162471 8.053060 0.019273 -0.114785 -0.002679 -0.000000 0.000000 0.000000 0.000000 0.000000 0.000000 0.000000 3.465747 6.512814 0.986789 30.419621 29.133680 2.077572 0.234066 68.260976 -0.027596 -3.196148 7.261734 -0.215181 -0.013617 -0.479519 -0.000000 0.000000 0.000000 0.000000 0.000000 0.000000 0.000000 
